# xmcd
#
# Track frame offsets: 
#        150
#        16782
#        34470
#        52377
#        69685
#        86405
#        104570
#        126337
#        144720
#        158700
#
# Disc length: 2310 seconds
#
# Revision: 2
# Processed by: cddbd v1.5.2PL0 Copyright (c) Steve Scherf et al.
# Submitted via: ExactAudioCopy v1.0b1
#
DISCID=9209040a
DTITLE=Rufus with Chaka Khan - Camouflage
DYEAR=1981
DGENRE=Soul
TTITLE0=Better Together
TTITLE1=Jigsaw
TTITLE2=Secret Friend
TTITLE3=Music Man (The DJ Song)
TTITLE4=True Love
TTITLE5=Sharing The Love
TTITLE6=Quandary
TTITLE7=Lilah
TTITLE8=Losers in Love
TTITLE9=Highlight
EXTD=
EXTT0=
EXTT1=
EXTT2=
EXTT3=
EXTT4=
EXTT5=
EXTT6=
EXTT7=
EXTT8=
EXTT9=
PLAYORDER=
